<?xml version="1.0" encoding="UTF-8"?>
<svg width="87px" height="52px" viewBox="0 0 87 52" version="1.1" xmlns="http://www.w3.org/2000/svg" xmlns:xlink="http://www.w3.org/1999/xlink">
    <title>Group 19</title>
    <g id="Page-1" stroke="none" stroke-width="1" fill="none" fill-rule="evenodd">
        <g id="Services---single" transform="translate(-677.000000, -1476.000000)">
            <g id="Group-15" transform="translate(207.000000, 246.000000)">
                <g id="Group-10" transform="translate(400.000000, 557.000000)">
                    <g id="Group-20" transform="translate(0.000000, 263.000000)">
                        <g id="Group-19" transform="translate(113.500000, 435.516393) scale(-1, 1) translate(-113.500000, -435.516393) translate(70.000000, 410.000000)">
                            <g id="Group-18" transform="translate(2.596607, 1.522088)">
                                <path d="M81.784345,0 C83.0111706,6.05157094 80.5825991,9.94857971 74.4986307,11.6910263 C56.263188,16.9136512 37.0179106,14.9436312 25.1176783,16.7074198 C23.6825433,16.9201278 22.2742467,17.2035491 21.0700593,17.5434853 C6.56494177,21.6382087 -0.450931243,31.4459011 0.0224402366,46.9665627" id="Line" stroke-opacity="0.747047264" stroke="#FFFFFF" stroke-linecap="square"></path>
                                <ellipse id="Oval" stroke="#000000" fill="#FFFFFF" cx="74.9986306" cy="11.2074196" rx="1.6190475" ry="1.68852447"></ellipse>
                                <ellipse id="Oval" stroke="#000000" fill="#FFFFFF" cx="21.6176782" cy="17.2238131" rx="1.6190475" ry="1.68852447"></ellipse>
                            </g>
                            <ellipse id="Oval" stroke="#000000" fill="#FFFFFF" cx="84.8809523" cy="2.18852447" rx="1.6190475" ry="1.68852447"></ellipse>
                            <ellipse id="Oval" stroke="#000000" fill="#FFFFFF" cx="2.1190475" cy="48.8442622" rx="1.6190475" ry="1.68852447"></ellipse>
                        </g>
                    </g>
                </g>
            </g>
        </g>
    </g>
</svg>