<?xml version="1.0" encoding="UTF-8"?>
<svg width="25px" height="22px" viewBox="0 0 25 22" version="1.1" xmlns="http://www.w3.org/2000/svg" xmlns:xlink="http://www.w3.org/1999/xlink">
    <title>Path</title>
    <g id="Page-1" stroke="none" stroke-width="1" fill="none" fill-rule="evenodd" stroke-linecap="round" stroke-linejoin="round">
        <g id="Contact" transform="translate(-119.000000, -482.000000)" stroke="#E73631" stroke-width="1.5">
            <g id="Group-11" transform="translate(120.000000, 180.000000)">
                <g id="Group-7" transform="translate(0.000000, 84.540698)">
                    <g id="Group-6" transform="translate(0.000000, 136.000000)">
                        <g id="Group-3" transform="translate(0.000000, 80.000000)">
                            <g id="Group" transform="translate(0.000000, 2.857143)">
                                <path d="M0,4.56428571 C0,12.9666286 7.97837857,19.7785714 17.8194876,19.7785714 L20.4924107,19.7785714 C21.9686254,19.7785714 23.1653339,18.7568213 23.1653339,17.4964286 L23.1653339,16.1048286 C23.1653339,15.5814571 22.7483578,15.1250286 22.153187,14.9982429 L16.8988141,13.8764429 C16.3761091,13.7648714 15.8272689,13.9322286 15.5053301,14.2994 L14.3530033,15.6108714 C14.0179969,15.9922429 13.4394575,16.1606143 12.9155646,15.9963 C8.9793741,14.7607586 5.8770326,12.1119782 4.42992461,8.75125714 C4.23747415,8.30395714 4.43467648,7.81 4.88135163,7.52397143 L6.41739146,6.54011429 C6.84862306,6.26524286 7.04344946,5.79562857 6.91277321,5.35035714 L5.598883,0.864171429 C5.45012198,0.356413947 4.91583853,0 4.30281227,0 L2.67292314,0 C1.19670845,0 0,1.02175016 0,2.28214286 L0,4.56428571 Z" id="Path"></path>
                            </g>
                        </g>
                    </g>
                </g>
            </g>
        </g>
    </g>
</svg>