<?xml version="1.0" encoding="UTF-8"?>
<svg width="25px" height="21px" viewBox="0 0 25 21" version="1.1" xmlns="http://www.w3.org/2000/svg" xmlns:xlink="http://www.w3.org/1999/xlink">
    <title>Group</title>
    <g id="Page-1" stroke="none" stroke-width="1" fill="none" fill-rule="evenodd" stroke-linecap="round" stroke-linejoin="round">
        <g id="Contact" transform="translate(-119.000000, -404.000000)" stroke="#E73631" stroke-width="1.5">
            <g id="Group-11" transform="translate(120.000000, 180.000000)">
                <g id="Group-7" transform="translate(0.000000, 84.540698)">
                    <g id="Group-6" transform="translate(0.000000, 136.000000)">
                        <g id="Group" transform="translate(0.000000, 4.685714)">
                            <path d="M0,18.7642857 L23.1653339,18.7642857 M1.78194876,0.507142857 L1.78194876,18.7642857 M14.2555901,0.507142857 L14.2555901,18.7642857 M21.3833851,5.07142857 L21.3833851,18.7642857 M5.34584627,4.31071429 L6.23682065,4.31071429 M5.34584627,7.35357143 L6.23682065,7.35357143 M5.34584627,10.3964286 L6.23682065,10.3964286 M9.80071817,4.31071429 L10.6916925,4.31071429 M9.80071817,7.35357143 L10.6916925,7.35357143 M9.80071817,10.3964286 L10.6916925,10.3964286 M5.34584627,18.7642857 L5.34584627,15.3410714 C5.34584627,14.7112 5.94458106,14.2 6.68230784,14.2 L9.35523098,14.2 C10.0929578,14.2 10.6916925,14.7112 10.6916925,15.3410714 L10.6916925,18.7642857 M0.890974379,0.507142857 L15.1465644,0.507142857 M14.2555901,5.07142857 L22.2743595,5.07142857" id="Shape"></path>
                        </g>
                    </g>
                </g>
            </g>
        </g>
    </g>
</svg>