<?xml version="1.0" encoding="UTF-8"?>
<svg width="18px" height="19px" viewBox="0 0 18 19" version="1.1" xmlns="http://www.w3.org/2000/svg" xmlns:xlink="http://www.w3.org/1999/xlink">
    <title>Shape 2</title>
    <g id="Page-1" stroke="none" stroke-width="1" fill="none" fill-rule="evenodd">
        <g id="Contact" transform="translate(-312.000000, -614.000000)" fill="#FFFFFF" fill-rule="nonzero">
            <g id="Group-29" transform="translate(120.000000, 606.000000)">
                <g id="Group-28" transform="translate(180.000000, 0.000000)">
                    <g id="linkedin-in" transform="translate(12.000000, 8.775000)">
                        <path d="M4.02919709,17.55 L0.297328066,17.55 L0.297328066,5.83276299 L4.02919709,5.83276299 L4.02919709,17.55 Z M2.1612536,4.23442374 C0.967923393,4.23442374 0,3.27071919 0,2.10722223 C0,0.943435524 0.96762621,0 2.1612536,0 C3.354881,0 4.32250721,0.943435524 4.32250721,2.10722223 C4.32250721,3.27071919 3.35418202,4.23442374 2.1612536,4.23442374 Z M17.9963839,17.55 L14.2725508,17.55 L14.2725508,11.8461227 C14.2725508,10.4867508 14.2444251,8.74346412 12.3322842,8.74346412 C10.3920177,8.74346412 10.0946896,10.2203609 10.0946896,11.7481852 L10.0946896,17.55 L6.36683856,17.55 L6.36683856,5.83276299 L9.9460256,5.83276299 L9.9460256,7.43110224 L9.99825891,7.43110224 C10.4964843,6.51049017 11.7135204,5.53895062 13.5292306,5.53895062 C17.3061006,5.53895062 18.0004018,7.96388199 18.0004018,11.1135505 L18.0004018,17.55 L17.9963839,17.55 Z" id="Shape"></path>
                    </g>
                </g>
            </g>
        </g>
    </g>
</svg>