<?xml version="1.0" encoding="UTF-8"?>
<svg width="25px" height="19px" viewBox="0 0 25 19" version="1.1" xmlns="http://www.w3.org/2000/svg" xmlns:xlink="http://www.w3.org/1999/xlink">
    <title>Group</title>
    <g id="Page-1" stroke="none" stroke-width="1" fill="none" fill-rule="evenodd" stroke-linecap="round" stroke-linejoin="round">
        <g id="Contact" transform="translate(-119.000000, -532.000000)" stroke="#E73631" stroke-width="1.5">
            <g id="Group-11" transform="translate(120.000000, 180.000000)">
                <g id="Group-7" transform="translate(0.000000, 84.540698)">
                    <g id="Group-6" transform="translate(0.000000, 136.000000)">
                        <g id="Group-4" transform="translate(0.000000, 125.428571)">
                            <g id="Group" transform="translate(0.000000, 6.857143)">
                                <path d="M0,9.88928567 L4.58554814,9.88928567 C5.59784035,9.88950716 6.52312832,10.3779634 6.9757354,11.1510571 L7.27985466,11.6703714 C7.73265309,12.443792 8.65850972,12.9323056 9.67122989,12.9321429 L13.494104,12.9321429 C14.5068241,12.9323056 15.4326808,12.443792 15.8854792,11.6703714 L16.1895984,11.1510571 C16.6423969,10.3776366 17.5682535,9.88912296 18.5809737,9.88928567 L23.1653339,9.88928567 M0,10.2321143 L0,14.4535714 C0,15.7139641 1.19670845,16.7357143 2.67292314,16.7357143 L20.4924107,16.7357143 C21.9686254,16.7357143 23.1653339,15.7139641 23.1653339,14.4535714 L23.1653339,10.2321143 C23.1653339,10.0049143 23.124943,9.77872857 23.0465373,9.56167143 L20.1835396,1.61068571 C19.8383857,0.653420946 18.8025191,0.000181776647 17.629413,0 L5.53710877,0 C4.36400267,0.000181776647 3.32813609,0.653420946 2.98298222,1.61068571 L0.118796584,9.56167143 C0.0403162624,9.77885474 0.000275534579,10.0048294 0,10.2321143 Z" id="Shape"></path>
                            </g>
                        </g>
                    </g>
                </g>
            </g>
        </g>
    </g>
</svg>