<?xml version="1.0" encoding="UTF-8"?>
<svg width="23px" height="19px" viewBox="0 0 23 19" version="1.1" xmlns="http://www.w3.org/2000/svg" xmlns:xlink="http://www.w3.org/1999/xlink">
    <title>Path</title>
    <g id="Page-1" stroke="none" stroke-width="1" fill="none" fill-rule="evenodd">
        <g id="Contact" transform="translate(-129.000000, -615.000000)" fill="#FFFFFF" fill-rule="nonzero">
            <g id="Group-29" transform="translate(120.000000, 606.000000)">
                <g id="twitter" transform="translate(9.000000, 9.750000)">
                    <path d="M19.8843778,4.37377314 C19.8984458,4.5657171 19.8984458,4.75770326 19.8984458,4.94964722 C19.8984458,10.8041912 15.3281598,17.55 6.97500703,17.55 C4.40155638,17.55 2.0109466,16.8232887 0,15.5619366 C0.365638459,15.6030434 0.71716562,15.6167597 1.09687209,15.6167597 C3.22027621,15.6167597 5.17499405,14.9175232 6.7359374,13.7246683 C4.73905881,13.6835194 3.06561465,12.4084088 2.48904258,10.6533962 C2.77031625,10.6945029 3.05154664,10.7219355 3.34688832,10.7219355 C3.75468753,10.7219355 4.16253003,10.6670703 4.54219322,10.5711405 C2.46094984,10.1597777 0.899963207,8.37737467 0.899963207,6.22475778 L0.899963207,6.16993473 C1.50462802,6.49899961 2.2078122,6.70465988 2.95307055,6.7320503 C1.72962964,5.93679964 0.928099231,4.57943341 0.928099231,3.04379733 C0.928099231,2.22115625 1.15305757,1.46705452 1.54683205,0.808924771 C3.78278027,3.49626681 7.14373661,5.25123726 10.9124489,5.44322343 C10.8421521,5.11415855 10.7999481,4.77141957 10.7999481,4.42863838 C10.7999481,1.98806335 12.8249627,0 15.3421413,0 C16.649947,0 17.8311839,0.534725145 18.6608936,1.39851516 C19.6874256,1.2065712 20.6717969,0.836357395 21.5437106,0.329064874 C21.2061649,1.35740843 20.4889993,2.22119845 19.5468321,2.7695977 C20.4609066,2.67366793 21.346845,2.42681652 22.1624435,2.08407754 C21.5437972,2.96154166 20.7703163,3.74303381 19.8843778,4.37377314 Z" id="Path"></path>
                </g>
            </g>
        </g>
    </g>
</svg>