<?xml version="1.0" encoding="UTF-8"?>
<svg width="18px" height="19px" viewBox="0 0 18 19" version="1.1" xmlns="http://www.w3.org/2000/svg" xmlns:xlink="http://www.w3.org/1999/xlink">
    <title>Shape</title>
    <g id="Page-1" stroke="none" stroke-width="1" fill="none" fill-rule="evenodd">
        <g id="Contact" transform="translate(-191.000000, -616.000000)" fill="#FFFFFF" fill-rule="nonzero">
            <g id="Group-29" transform="translate(120.000000, 606.000000)">
                <g id="Group-26" transform="translate(60.000000, 0.000000)">
                    <g id="instagram" transform="translate(11.000000, 10.725000)">
                        <path d="M9.00178452,4.27434183 C6.44791591,4.27434183 4.38795585,6.28280288 4.38795585,8.77282478 C4.38795585,11.2628467 6.44791591,13.2713077 9.00178452,13.2713077 C11.5556531,13.2713077 13.6156132,11.2628467 13.6156132,8.77282478 C13.6156132,6.28280288 11.5556531,4.27434183 9.00178452,4.27434183 Z M9.00178452,11.697426 C7.35140716,11.697426 6.00219356,10.3858578 6.00219356,8.77282477 C6.00219356,7.15979172 7.34739164,5.84822359 9.00178452,5.84822359 C10.6561774,5.84822359 12.0013755,7.15979172 12.0013755,8.77282477 C12.0013755,10.3858578 10.6521619,11.697426 9.00178452,11.697426 L9.00178452,11.697426 Z M14.8805009,4.09033077 C14.8805009,4.67368496 14.3986389,5.13958528 13.8043425,5.13958528 C13.2060305,5.13958528 12.728184,4.66976983 12.728184,4.09033077 C12.728184,3.51089172 13.210046,3.04107627 13.8043425,3.04107627 C14.3986389,3.04107627 14.8805009,3.51089172 14.8805009,4.09033077 Z M17.9363091,5.1552458 C17.8680453,3.74971457 17.538773,2.50470363 16.4826921,1.47893989 C15.4306267,0.453176154 14.1536924,0.132135596 12.7121219,0.061663278 C11.2263808,-0.020554426 6.77317276,-0.020554426 5.28743159,0.061663278 C3.84987662,0.128220467 2.57294231,0.449261026 1.51686143,1.47502476 C0.460780539,2.5007885 0.135523688,3.74579944 0.0632443877,5.15133067 C-0.0210814626,6.59992831 -0.0210814626,10.9418061 0.0632443877,12.3904038 C0.131508171,13.795935 0.460780539,15.0409459 1.51686143,16.0667097 C2.57294231,17.0924734 3.8458611,17.413514 5.28743159,17.4839863 C6.77317276,17.566204 11.2263808,17.566204 12.7121219,17.4839863 C14.1536924,17.4174291 15.4306267,17.0963885 16.4826921,16.0667097 C17.5347575,15.0409459 17.8640298,13.795935 17.9363091,12.3904038 C18.020635,10.9418061 18.020635,6.60384344 17.9363091,5.1552458 Z M16.0168922,13.9447099 C15.7036819,14.7120751 15.0973388,15.3032596 14.3062821,15.6125547 C13.1217046,16.0706248 10.310843,15.9649163 9.00178452,15.9649163 C7.69272608,15.9649163 4.87784889,16.0667097 3.69728698,15.6125547 C2.91024571,15.3071747 2.30390269,14.7159902 1.98667688,13.9447099 C1.51686143,12.7897469 1.62528038,10.0491568 1.62528038,8.77282478 C1.62528038,7.4964928 1.52087694,4.75198754 1.98667688,3.60093968 C2.29988718,2.83357444 2.9062302,2.24239 3.69728698,1.93309483 C4.8818644,1.47502476 7.69272608,1.58073324 9.00178452,1.58073324 C10.310843,1.58073324 13.1257201,1.47893989 14.3062821,1.93309483 C15.0933233,2.23847487 15.6996663,2.82965931 16.0168922,3.60093968 C16.4867076,4.75590266 16.3782887,7.4964928 16.3782887,8.77282478 C16.3782887,10.0491568 16.4867076,12.793662 16.0168922,13.9447099 Z" id="Shape"></path>
                    </g>
                </g>
            </g>
        </g>
    </g>
</svg>