<?xml version="1.0" encoding="UTF-8"?>
<svg width="150px" height="129px" viewBox="0 0 150 129" version="1.1" xmlns="http://www.w3.org/2000/svg" xmlns:xlink="http://www.w3.org/1999/xlink">
    <title>Shape</title>
    <g id="Page-1" stroke="none" stroke-width="1" fill="none" fill-rule="evenodd">
        <g id="Agency" transform="translate(-226.000000, -2685.000000)" fill="#E73631" fill-rule="nonzero">
            <path d="M376,2709.03998 C356.153967,2716.99057 345.13551,2735.52153 344.947697,2763.63091 L369.989609,2763.63091 L369.989609,2813.71394 L313.645901,2813.71394 L313.645901,2767.13647 C313.645901,2754.05248 316.713371,2741.2496 318.34121,2731.6087 C319.968653,2721.9678 324.241681,2718.57136 331.159502,2708.89922 C338.076928,2699.22669 348.703944,2691.26028 363.040552,2685 L376,2709.03998 Z M288.353704,2709.03998 C268.695878,2716.99057 257.677817,2735.52153 257.302192,2763.63091 L282.343708,2763.63091 L282.343708,2813.71394 L226,2813.71394 L226,2767.13647 C226,2754.05248 229.06747,2741.2496 230.695309,2731.6087 C232.323148,2721.9678 236.533308,2718.57136 243.325789,2708.89922 C250.11827,2699.22669 260.807759,2691.26028 275.394651,2685 L288.353704,2709.03998 Z" id="Shape"></path>
        </g>
    </g>
</svg>