<?xml version="1.0" encoding="UTF-8"?>
<svg width="100px" height="86px" viewBox="0 0 100 86" version="1.1" xmlns="http://www.w3.org/2000/svg" xmlns:xlink="http://www.w3.org/1999/xlink">
    <title>Shape</title>
    <g id="Page-1" stroke="none" stroke-width="1" fill="none" fill-rule="evenodd" stroke-opacity="0.384954279">
        <g id="Agency" transform="translate(-245.000000, -2048.000000)" fill-rule="nonzero" stroke="#FFFFFF">
            <path d="M344,2064.68873 C330.950539,2069.87737 323.705519,2081.97085 323.582025,2100.31531 L340.047958,2100.31531 L340.047958,2133 L303,2133 L303,2102.60308 C303,2094.06433 305.016969,2085.70905 306.08733,2079.4173 C307.157431,2073.12555 309.967096,2070.909 314.515805,2064.59687 C319.064255,2058.28448 326.051889,2053.08552 335.47871,2049 L344,2064.68873 Z M287,2064.68873 C274.074211,2069.87737 266.829404,2081.97085 266.582416,2100.31531 L283.048193,2100.31531 L283.048193,2133 L246,2133 L246,2102.60308 C246,2094.06433 248.016982,2085.70905 249.087349,2079.4173 C250.157717,2073.12555 252.926062,2070.909 257.392384,2064.59687 C261.858706,2058.28448 268.887464,2053.08552 278.478916,2049 L287,2064.68873 Z" id="Shape"></path>
        </g>
    </g>
</svg>